<?xml version="1.0" encoding="UTF-8" standalone="no"?>
<!DOCTYPE svg PUBLIC "-//W3C//DTD SVG 1.1//EN" "http://www.w3.org/Graphics/SVG/1.1/DTD/svg11.dtd">
<svg width="100%" height="100%" viewBox="0 0 4254 922" version="1.1" xmlns="http://www.w3.org/2000/svg" xmlns:xlink="http://www.w3.org/1999/xlink" xml:space="preserve" xmlns:serif="http://www.serif.com/" style="fill-rule:evenodd;clip-rule:evenodd;stroke-linecap:round;stroke-linejoin:round;stroke-miterlimit:0;">
    <g transform="matrix(1,0,0,1,-1337.66,-1206.41)">
        <g transform="matrix(1.39613,0,0,1.39613,-1788.42,-448.85)">
            <g transform="matrix(5.55556,0,0,5.55556,14.5532,0)">
                <g>
                    <g transform="matrix(1.53213,0,0,1.53213,398.793,262.653)">
                        <g>
                            <path d="M23.828,0.688C16.035,0.688 10.301,-0.914 6.625,-4.125C3.375,-6.969 1.75,-10.832 1.75,-15.719C1.75,-20.625 3.375,-24.5 6.625,-27.344C10.301,-30.539 16.035,-32.141 23.828,-32.141C28.266,-32.141 31.953,-31.641 34.891,-30.641C37.828,-29.648 40.133,-28.297 41.813,-26.578C43.488,-24.859 44.633,-22.879 45.25,-20.641L31.109,-20.641C29.629,-22.672 27.203,-23.688 23.828,-23.688C20.629,-23.688 18.281,-22.773 16.781,-20.953C15.57,-19.473 14.969,-17.727 14.969,-15.719C14.969,-13.719 15.57,-11.984 16.781,-10.516C18.281,-8.68 20.629,-7.766 23.828,-7.766C26.398,-7.766 28.332,-7.988 29.625,-8.438C30.926,-8.883 31.875,-9.469 32.469,-10.188L27.313,-10.188L27.313,-15.719L45.25,-15.719L45.25,0.016L39.766,0.016L38.641,-3.031C35.141,-0.551 30.203,0.688 23.828,0.688Z" style="fill-rule:nonzero;"/>
                        </g>
                    </g>
                    <g transform="matrix(1.53213,0,0,1.53213,476.028,262.653)">
                        <g>
                            <rect x="3.516" y="-31.516" width="13.219" height="31.516" style="fill-rule:nonzero;"/>
                        </g>
                    </g>
                    <g transform="matrix(1.53213,0,0,1.53213,509.713,262.653)">
                        <g>
                            <path d="M40.297,0L3.516,0L3.516,-31.516L16.734,-31.516L16.734,-7.797L40.297,-7.797L40.297,0Z" style="fill-rule:nonzero;"/>
                        </g>
                    </g>
                    <g transform="matrix(1.53213,0,0,1.53213,579.336,262.653)">
                        <g>
                            <path d="M26.109,0L3.516,0L3.516,-31.484L26.594,-31.484C30.688,-31.484 34.055,-31.297 36.703,-30.922C39.359,-30.547 41.398,-29.957 42.828,-29.156C44.266,-28.363 45.238,-27.352 45.75,-26.125C46.27,-24.895 46.531,-23.426 46.531,-21.719C46.488,-20.375 46.117,-19.254 45.422,-18.359C44.723,-17.473 43.91,-16.816 42.984,-16.391C42.055,-15.961 41.238,-15.75 40.531,-15.75C41.219,-15.75 42.02,-15.613 42.938,-15.344C43.863,-15.07 44.758,-14.676 45.625,-14.156C46.5,-13.645 47.223,-13.023 47.797,-12.297C48.379,-11.566 48.672,-10.734 48.672,-9.797C48.672,-8.566 48.531,-7.438 48.25,-6.406C47.969,-5.383 47.395,-4.477 46.531,-3.688C45.676,-2.895 44.414,-2.223 42.75,-1.672C41.082,-1.129 38.895,-0.711 36.188,-0.422C33.488,-0.141 30.129,0 26.109,0ZM25.359,-18.438C27.297,-18.438 28.789,-18.531 29.844,-18.719C30.906,-18.914 31.641,-19.207 32.047,-19.594C32.461,-19.977 32.672,-20.473 32.672,-21.078C32.672,-21.691 32.461,-22.191 32.047,-22.578C31.641,-22.973 30.906,-23.258 29.844,-23.438C28.789,-23.625 27.297,-23.719 25.359,-23.719L16.734,-23.719L16.734,-18.438L25.359,-18.438ZM25.359,-7.766C27.336,-7.766 28.941,-7.816 30.172,-7.922C31.398,-8.023 32.301,-8.258 32.875,-8.625C33.445,-8.988 33.734,-9.582 33.734,-10.406C33.734,-11.227 33.445,-11.82 32.875,-12.188C32.301,-12.563 31.398,-12.797 30.172,-12.891C28.941,-12.992 27.336,-13.047 25.359,-13.047L16.734,-13.047L16.734,-7.766L25.359,-7.766Z" style="fill-rule:nonzero;"/>
                        </g>
                    </g>
                    <g transform="matrix(1.53213,0,0,1.53213,661.917,262.653)">
                        <g>
                            <path d="M41.453,0L3.516,0L3.516,-31.516L39.719,-31.516L39.719,-23.719L16.734,-23.719L16.734,-18.781L36.156,-18.781L36.156,-12.719L16.734,-12.719L16.734,-7.797L41.453,-7.797L41.453,0Z" style="fill-rule:nonzero;"/>
                        </g>
                    </g>
                    <g transform="matrix(1.53213,0,0,1.53213,733.346,262.653)">
                        <g>
                            <path d="M46.531,0L34.031,0C33.457,-0.789 33.055,-1.801 32.828,-3.031C32.617,-3.977 32.313,-4.91 31.906,-5.828C31.5,-6.742 30.789,-7.504 29.781,-8.109C28.781,-8.723 27.289,-9.051 25.313,-9.094L16.734,-9.094L16.734,0L3.516,0L3.516,-31.516L25.016,-31.516C30.148,-31.516 34.297,-31.129 37.453,-30.359C40.609,-29.586 42.91,-28.379 44.359,-26.734C45.805,-25.086 46.531,-22.938 46.531,-20.281C46.531,-18.07 46.023,-16.211 45.016,-14.703C44.016,-13.203 42.43,-12.008 40.266,-11.125C42.359,-10.27 43.719,-9.238 44.344,-8.031C44.969,-6.82 45.352,-5.492 45.5,-4.047C45.645,-2.754 45.988,-1.406 46.531,0ZM16.734,-16.859L24.281,-16.891C26.395,-16.891 28.055,-16.984 29.266,-17.172C30.484,-17.359 31.379,-17.613 31.953,-17.938C32.535,-18.27 32.906,-18.641 33.063,-19.047C33.227,-19.453 33.313,-19.863 33.313,-20.281C33.313,-20.707 33.227,-21.125 33.063,-21.531C32.906,-21.945 32.535,-22.316 31.953,-22.641C31.379,-22.973 30.484,-23.234 29.266,-23.422C28.055,-23.617 26.395,-23.719 24.281,-23.719L16.734,-23.719L16.734,-16.859Z" style="fill-rule:nonzero;"/>
                        </g>
                    </g>
                    <g transform="matrix(1.53213,0,0,1.53213,815.893,262.653)">
                        <g>
                            <path d="M26.875,0L13.656,0L13.656,-23.719L1.313,-23.719L1.313,-31.516L39.219,-31.516L39.219,-23.719L26.875,-23.719L26.875,0Z" style="fill-rule:nonzero;"/>
                        </g>
                    </g>
                    <g transform="matrix(1.53213,0,0,1.53213,886.623,262.653)">
                        <g>
                            <path d="M20.813,0.688C16.551,0.688 13.117,0.227 10.516,-0.688C7.91,-1.602 5.926,-2.863 4.563,-4.469C3.207,-6.07 2.297,-7.922 1.828,-10.016L15.859,-10.016C16.891,-8.516 18.539,-7.766 20.813,-7.766C23.082,-7.766 24.738,-8.516 25.781,-10.016C25.863,-10.16 25.906,-10.289 25.906,-10.406C25.906,-10.801 25.379,-11.098 24.328,-11.297C23.285,-11.492 21.727,-11.645 19.656,-11.75C17.031,-11.863 14.273,-12.141 11.391,-12.578C4.961,-13.578 1.75,-16.16 1.75,-20.328C1.75,-20.68 1.773,-21.055 1.828,-21.453C2.297,-23.547 3.207,-25.395 4.563,-27C5.926,-28.602 7.91,-29.859 10.516,-30.766C13.117,-31.68 16.551,-32.141 20.813,-32.141C25.07,-32.141 28.504,-31.68 31.109,-30.766C33.711,-29.859 35.695,-28.602 37.063,-27C38.426,-25.395 39.344,-23.547 39.813,-21.453L25.781,-21.453C24.738,-22.941 23.082,-23.688 20.813,-23.688C18.539,-23.688 16.891,-22.941 15.859,-21.453C15.785,-21.336 15.75,-21.227 15.75,-21.125C15.75,-20.77 16.25,-20.508 17.25,-20.344C18.25,-20.176 19.723,-20.031 21.672,-19.906C23.629,-19.789 25.711,-19.602 27.922,-19.344C30.141,-19.082 32.207,-18.625 34.125,-17.969C36.051,-17.32 37.555,-16.359 38.641,-15.078C39.492,-14.098 39.922,-12.859 39.922,-11.359C39.922,-10.93 39.883,-10.484 39.813,-10.016C39.344,-7.922 38.426,-6.07 37.063,-4.469C35.695,-2.863 33.711,-1.602 31.109,-0.688C28.504,0.227 25.07,0.688 20.813,0.688Z" style="fill-rule:nonzero;"/>
                        </g>
                    </g>
                </g>
            </g>
            <g transform="matrix(5.61746,0,0,5.61746,-57.7752,111.304)">
                <g>
                    <g>
                        <g transform="matrix(1,0,0,1,407.007,267.083)">
                            <g>
                                <path d="M8.922,0L1.875,0L1.875,-16.813L13.344,-16.813C16.082,-16.813 18.289,-16.602 19.969,-16.188C21.656,-15.781 22.883,-15.133 23.656,-14.25C24.426,-13.375 24.813,-12.234 24.813,-10.828C24.813,-9.422 24.426,-8.273 23.656,-7.391C22.883,-6.516 21.656,-5.867 19.969,-5.453C18.289,-5.047 16.082,-4.844 13.344,-4.844L8.922,-4.844L8.922,0ZM8.922,-9L12.953,-9C14.078,-9 14.961,-9.047 15.609,-9.141C16.254,-9.234 16.734,-9.359 17.047,-9.516C17.359,-9.68 17.555,-9.875 17.641,-10.094C17.723,-10.32 17.766,-10.566 17.766,-10.828C17.766,-11.086 17.723,-11.328 17.641,-11.547C17.555,-11.773 17.359,-11.969 17.047,-12.125C16.734,-12.289 16.254,-12.414 15.609,-12.5C14.961,-12.594 14.078,-12.641 12.953,-12.641L8.922,-12.641L8.922,-9Z" style="fill-rule:nonzero;"/>
                            </g>
                        </g>
                        <g transform="matrix(1,0,0,1,437.549,267.083)">
                            <g>
                                <path d="M12.703,0.359C8.547,0.359 5.488,-0.492 3.531,-2.203C1.801,-3.711 0.938,-5.773 0.938,-8.391C0.938,-11.004 1.801,-13.066 3.531,-14.578C5.488,-16.285 8.547,-17.141 12.703,-17.141C16.859,-17.141 19.914,-16.285 21.875,-14.578C23.602,-13.066 24.469,-11.004 24.469,-8.391C24.469,-5.773 23.602,-3.711 21.875,-2.203C19.914,-0.492 16.859,0.359 12.703,0.359ZM12.703,-4.141C14.41,-4.141 15.66,-4.629 16.453,-5.609C17.098,-6.398 17.422,-7.328 17.422,-8.391C17.422,-9.461 17.098,-10.391 16.453,-11.172C15.66,-12.148 14.41,-12.641 12.703,-12.641C11.004,-12.641 9.754,-12.148 8.953,-11.172C8.305,-10.391 7.984,-9.461 7.984,-8.391C7.984,-7.328 8.305,-6.398 8.953,-5.609C9.754,-4.629 11.004,-4.141 12.703,-4.141Z" style="fill-rule:nonzero;"/>
                            </g>
                        </g>
                        <g transform="matrix(1,0,0,1,467.751,267.083)">
                            <g>
                                <path d="M28.313,0L22.422,0L18.281,-10.922L14.141,0L8.25,0L0.172,-16.797L7.313,-16.797L11.531,-6.125L16.063,-16.797L20.5,-16.797L25.031,-6.125L29.25,-16.797L36.391,-16.797L28.313,0Z" style="fill-rule:nonzero;"/>
                            </g>
                        </g>
                        <g transform="matrix(1,0,0,1,509.099,267.083)">
                            <g>
                                <path d="M22.109,0L1.875,0L1.875,-16.813L21.188,-16.813L21.188,-12.641L8.922,-12.641L8.922,-10.016L19.281,-10.016L19.281,-6.781L8.922,-6.781L8.922,-4.156L22.109,-4.156L22.109,0Z" style="fill-rule:nonzero;"/>
                            </g>
                        </g>
                        <g transform="matrix(1,0,0,1,536.937,267.083)">
                            <g>
                                <path d="M24.813,0L18.156,0C17.852,-0.414 17.641,-0.953 17.516,-1.609C17.398,-2.117 17.234,-2.617 17.016,-3.109C16.797,-3.598 16.414,-4.004 15.875,-4.328C15.344,-4.648 14.551,-4.82 13.5,-4.844L8.922,-4.844L8.922,0L1.875,0L1.875,-16.813L13.344,-16.813C16.082,-16.813 18.289,-16.602 19.969,-16.188C21.656,-15.781 22.883,-15.133 23.656,-14.25C24.426,-13.375 24.813,-12.234 24.813,-10.828C24.813,-9.641 24.547,-8.645 24.016,-7.844C23.484,-7.039 22.641,-6.406 21.484,-5.938C22.598,-5.477 23.316,-4.926 23.641,-4.281C23.973,-3.633 24.18,-2.926 24.266,-2.156C24.336,-1.469 24.52,-0.75 24.813,0ZM8.922,-9L12.953,-9C14.078,-9 14.961,-9.051 15.609,-9.156C16.254,-9.258 16.734,-9.398 17.047,-9.578C17.359,-9.754 17.555,-9.945 17.641,-10.156C17.723,-10.375 17.766,-10.598 17.766,-10.828C17.766,-11.047 17.723,-11.266 17.641,-11.484C17.555,-11.703 17.359,-11.898 17.047,-12.078C16.734,-12.254 16.254,-12.391 15.609,-12.484C14.961,-12.586 14.078,-12.641 12.953,-12.641L8.922,-12.641L8.922,-9Z" style="fill-rule:nonzero;"/>
                            </g>
                        </g>
                        <g transform="matrix(1,0,0,1,567.479,267.083)">
                            <g>
                                <path d="M11.109,0.359C8.828,0.359 6.992,0.117 5.609,-0.359C4.223,-0.848 3.164,-1.52 2.438,-2.375C1.707,-3.238 1.219,-4.227 0.969,-5.344L8.453,-5.344C9.004,-4.539 9.891,-4.141 11.109,-4.141C12.316,-4.141 13.195,-4.539 13.75,-5.344C13.789,-5.414 13.813,-5.484 13.813,-5.547C13.813,-5.766 13.531,-5.926 12.969,-6.031C12.414,-6.133 11.586,-6.211 10.484,-6.266C9.086,-6.328 7.617,-6.473 6.078,-6.703C2.648,-7.234 0.938,-8.613 0.938,-10.844C0.938,-11.031 0.945,-11.227 0.969,-11.438C1.219,-12.551 1.707,-13.535 2.438,-14.391C3.164,-15.254 4.223,-15.926 5.609,-16.406C6.992,-16.895 8.828,-17.141 11.109,-17.141C13.379,-17.141 15.207,-16.895 16.594,-16.406C17.977,-15.926 19.035,-15.254 19.766,-14.391C20.492,-13.535 20.984,-12.551 21.234,-11.438L13.75,-11.438C13.195,-12.238 12.316,-12.641 11.109,-12.641C9.891,-12.641 9.004,-12.238 8.453,-11.438C8.41,-11.375 8.391,-11.316 8.391,-11.266C8.391,-11.078 8.656,-10.938 9.188,-10.844C9.727,-10.758 10.52,-10.688 11.563,-10.625C12.602,-10.563 13.711,-10.457 14.891,-10.313C16.078,-10.176 17.18,-9.93 18.203,-9.578C19.234,-9.234 20.035,-8.723 20.609,-8.047C21.066,-7.523 21.297,-6.859 21.297,-6.047C21.297,-5.828 21.273,-5.594 21.234,-5.344C20.984,-4.227 20.492,-3.238 19.766,-2.375C19.035,-1.52 17.977,-0.848 16.594,-0.359C15.207,0.117 13.379,0.359 11.109,0.359Z" style="fill-rule:nonzero;"/>
                            </g>
                        </g>
                        <g transform="matrix(1,0,0,1,594.497,267.083)">
                            <g>
                                <path d="M8.922,0L1.875,0L1.875,-16.813L13.344,-16.813C16.082,-16.813 18.289,-16.602 19.969,-16.188C21.656,-15.781 22.883,-15.133 23.656,-14.25C24.426,-13.375 24.813,-12.234 24.813,-10.828C24.813,-9.422 24.426,-8.273 23.656,-7.391C22.883,-6.516 21.656,-5.867 19.969,-5.453C18.289,-5.047 16.082,-4.844 13.344,-4.844L8.922,-4.844L8.922,0ZM8.922,-9L12.953,-9C14.078,-9 14.961,-9.047 15.609,-9.141C16.254,-9.234 16.734,-9.359 17.047,-9.516C17.359,-9.68 17.555,-9.875 17.641,-10.094C17.723,-10.32 17.766,-10.566 17.766,-10.828C17.766,-11.086 17.723,-11.328 17.641,-11.547C17.555,-11.773 17.359,-11.969 17.047,-12.125C16.734,-12.289 16.254,-12.414 15.609,-12.5C14.961,-12.594 14.078,-12.641 12.953,-12.641L8.922,-12.641L8.922,-9Z" style="fill-rule:nonzero;"/>
                            </g>
                        </g>
                        <g transform="matrix(1,0,0,1,625.039,267.083)">
                            <g>
                                <path d="M12.703,0.359C8.547,0.359 5.488,-0.492 3.531,-2.203C1.801,-3.711 0.938,-5.773 0.938,-8.391C0.938,-11.004 1.801,-13.066 3.531,-14.578C5.488,-16.285 8.547,-17.141 12.703,-17.141C16.859,-17.141 19.914,-16.285 21.875,-14.578C23.602,-13.066 24.469,-11.004 24.469,-8.391C24.469,-5.773 23.602,-3.711 21.875,-2.203C19.914,-0.492 16.859,0.359 12.703,0.359ZM12.703,-4.141C14.41,-4.141 15.66,-4.629 16.453,-5.609C17.098,-6.398 17.422,-7.328 17.422,-8.391C17.422,-9.461 17.098,-10.391 16.453,-11.172C15.66,-12.148 14.41,-12.641 12.703,-12.641C11.004,-12.641 9.754,-12.148 8.953,-11.172C8.305,-10.391 7.984,-9.461 7.984,-8.391C7.984,-7.328 8.305,-6.398 8.953,-5.609C9.754,-4.629 11.004,-4.141 12.703,-4.141Z" style="fill-rule:nonzero;"/>
                            </g>
                        </g>
                        <g transform="matrix(1,0,0,1,655.241,267.083)">
                            <g>
                                <path d="M24.813,0L18.156,0C17.852,-0.414 17.641,-0.953 17.516,-1.609C17.398,-2.117 17.234,-2.617 17.016,-3.109C16.797,-3.598 16.414,-4.004 15.875,-4.328C15.344,-4.648 14.551,-4.82 13.5,-4.844L8.922,-4.844L8.922,0L1.875,0L1.875,-16.813L13.344,-16.813C16.082,-16.813 18.289,-16.602 19.969,-16.188C21.656,-15.781 22.883,-15.133 23.656,-14.25C24.426,-13.375 24.813,-12.234 24.813,-10.828C24.813,-9.641 24.547,-8.645 24.016,-7.844C23.484,-7.039 22.641,-6.406 21.484,-5.938C22.598,-5.477 23.316,-4.926 23.641,-4.281C23.973,-3.633 24.18,-2.926 24.266,-2.156C24.336,-1.469 24.52,-0.75 24.813,0ZM8.922,-9L12.953,-9C14.078,-9 14.961,-9.051 15.609,-9.156C16.254,-9.258 16.734,-9.398 17.047,-9.578C17.359,-9.754 17.555,-9.945 17.641,-10.156C17.723,-10.375 17.766,-10.598 17.766,-10.828C17.766,-11.047 17.723,-11.266 17.641,-11.484C17.555,-11.703 17.359,-11.898 17.047,-12.078C16.734,-12.254 16.254,-12.391 15.609,-12.484C14.961,-12.586 14.078,-12.641 12.953,-12.641L8.922,-12.641L8.922,-9Z" style="fill-rule:nonzero;"/>
                            </g>
                        </g>
                        <g transform="matrix(1,0,0,1,685.783,267.083)">
                            <g>
                                <path d="M14.328,0L7.281,0L7.281,-12.641L0.703,-12.641L0.703,-16.813L20.922,-16.813L20.922,-12.641L14.328,-12.641L14.328,0Z" style="fill-rule:nonzero;"/>
                            </g>
                        </g>
                        <g transform="matrix(1,0,0,1,712.193,267.083)">
                            <g>
                                <path d="M11.109,0.359C8.828,0.359 6.992,0.117 5.609,-0.359C4.223,-0.848 3.164,-1.52 2.438,-2.375C1.707,-3.238 1.219,-4.227 0.969,-5.344L8.453,-5.344C9.004,-4.539 9.891,-4.141 11.109,-4.141C12.316,-4.141 13.195,-4.539 13.75,-5.344C13.789,-5.414 13.813,-5.484 13.813,-5.547C13.813,-5.766 13.531,-5.926 12.969,-6.031C12.414,-6.133 11.586,-6.211 10.484,-6.266C9.086,-6.328 7.617,-6.473 6.078,-6.703C2.648,-7.234 0.938,-8.613 0.938,-10.844C0.938,-11.031 0.945,-11.227 0.969,-11.438C1.219,-12.551 1.707,-13.535 2.438,-14.391C3.164,-15.254 4.223,-15.926 5.609,-16.406C6.992,-16.895 8.828,-17.141 11.109,-17.141C13.379,-17.141 15.207,-16.895 16.594,-16.406C17.977,-15.926 19.035,-15.254 19.766,-14.391C20.492,-13.535 20.984,-12.551 21.234,-11.438L13.75,-11.438C13.195,-12.238 12.316,-12.641 11.109,-12.641C9.891,-12.641 9.004,-12.238 8.453,-11.438C8.41,-11.375 8.391,-11.316 8.391,-11.266C8.391,-11.078 8.656,-10.938 9.188,-10.844C9.727,-10.758 10.52,-10.688 11.563,-10.625C12.602,-10.563 13.711,-10.457 14.891,-10.313C16.078,-10.176 17.18,-9.93 18.203,-9.578C19.234,-9.234 20.035,-8.723 20.609,-8.047C21.066,-7.523 21.297,-6.859 21.297,-6.047C21.297,-5.828 21.273,-5.594 21.234,-5.344C20.984,-4.227 20.492,-3.238 19.766,-2.375C19.035,-1.52 17.977,-0.848 16.594,-0.359C15.207,0.117 13.379,0.359 11.109,0.359Z" style="fill-rule:nonzero;"/>
                            </g>
                        </g>
                    </g>
                    <g transform="matrix(1,0,0,1,747.861,267.083)">
                        <g>
                            <path d="M23.719,0.359L27.375,-2.547C26.883,-2.734 26.484,-2.898 26.172,-3.047L23.625,-4.266C24.094,-4.816 24.453,-5.297 24.703,-5.703C24.953,-6.109 25.219,-6.648 25.5,-7.328L20.203,-8.156C19.953,-7.625 19.656,-7.117 19.313,-6.641C18.02,-7.348 16.781,-8.113 15.594,-8.938C17.031,-9.594 18.023,-10.086 18.578,-10.422C19.141,-10.754 19.613,-11.18 20,-11.703C20.395,-12.234 20.594,-12.789 20.594,-13.375C20.594,-14.406 19.945,-15.289 18.656,-16.031C17.363,-16.77 15.344,-17.141 12.594,-17.141C9.906,-17.141 7.898,-16.75 6.578,-15.969C5.254,-15.188 4.594,-14.195 4.594,-13C4.594,-12.426 4.758,-11.863 5.094,-11.313C5.426,-10.77 6.039,-10.125 6.938,-9.375C4.801,-8.781 3.266,-8.055 2.328,-7.203C1.398,-6.348 0.938,-5.438 0.938,-4.469C0.938,-3.125 1.734,-1.984 3.328,-1.047C4.922,-0.109 7.344,0.359 10.594,0.359C12.676,0.359 14.535,0.191 16.172,-0.141C17.348,-0.391 18.523,-0.785 19.703,-1.328C20.273,-1.098 20.922,-0.82 21.641,-0.5C22.359,-0.176 23.051,0.109 23.719,0.359ZM11.438,-2.656C10.313,-2.656 9.395,-2.875 8.688,-3.313C7.988,-3.75 7.641,-4.25 7.641,-4.813C7.641,-5.176 7.789,-5.52 8.094,-5.844C8.406,-6.164 9.031,-6.551 9.969,-7C12.219,-5.531 14.07,-4.406 15.531,-3.625C14.008,-2.977 12.645,-2.656 11.438,-2.656ZM12.391,-11.125C11.16,-12.031 10.547,-12.723 10.547,-13.203C10.547,-13.578 10.766,-13.906 11.203,-14.188C11.641,-14.469 12.195,-14.609 12.875,-14.609C13.582,-14.609 14.133,-14.477 14.531,-14.219C14.938,-13.969 15.141,-13.66 15.141,-13.297C15.141,-12.953 14.898,-12.586 14.422,-12.203C13.941,-11.816 13.266,-11.457 12.391,-11.125Z" style="fill-rule:nonzero;"/>
                        </g>
                    </g>
                    <g transform="matrix(1,0,0,1,5.92156,0)">
                        <g transform="matrix(1,0,0,1,782.828,267.083)">
                            <g>
                                <path d="M24.813,0L18.156,0C17.852,-0.414 17.641,-0.953 17.516,-1.609C17.398,-2.117 17.234,-2.617 17.016,-3.109C16.797,-3.598 16.414,-4.004 15.875,-4.328C15.344,-4.648 14.551,-4.82 13.5,-4.844L8.922,-4.844L8.922,0L1.875,0L1.875,-16.813L13.344,-16.813C16.082,-16.813 18.289,-16.602 19.969,-16.188C21.656,-15.781 22.883,-15.133 23.656,-14.25C24.426,-13.375 24.813,-12.234 24.813,-10.828C24.813,-9.641 24.547,-8.645 24.016,-7.844C23.484,-7.039 22.641,-6.406 21.484,-5.938C22.598,-5.477 23.316,-4.926 23.641,-4.281C23.973,-3.633 24.18,-2.926 24.266,-2.156C24.336,-1.469 24.52,-0.75 24.813,0ZM8.922,-9L12.953,-9C14.078,-9 14.961,-9.051 15.609,-9.156C16.254,-9.258 16.734,-9.398 17.047,-9.578C17.359,-9.754 17.555,-9.945 17.641,-10.156C17.723,-10.375 17.766,-10.598 17.766,-10.828C17.766,-11.047 17.723,-11.266 17.641,-11.484C17.555,-11.703 17.359,-11.898 17.047,-12.078C16.734,-12.254 16.254,-12.391 15.609,-12.484C14.961,-12.586 14.078,-12.641 12.953,-12.641L8.922,-12.641L8.922,-9Z" style="fill-rule:nonzero;"/>
                            </g>
                        </g>
                        <g transform="matrix(1,0,0,1,813.37,267.083)">
                            <g>
                                <path d="M22.109,0L1.875,0L1.875,-16.813L21.188,-16.813L21.188,-12.641L8.922,-12.641L8.922,-10.016L19.281,-10.016L19.281,-6.781L8.922,-6.781L8.922,-4.156L22.109,-4.156L22.109,0Z" style="fill-rule:nonzero;"/>
                            </g>
                        </g>
                        <g transform="matrix(1,0,0,1,841.207,267.083)">
                            <g>
                                <path d="M8.922,0L1.875,0L1.875,-16.813L13.344,-16.813C16.082,-16.813 18.289,-16.602 19.969,-16.188C21.656,-15.781 22.883,-15.133 23.656,-14.25C24.426,-13.375 24.813,-12.234 24.813,-10.828C24.813,-9.422 24.426,-8.273 23.656,-7.391C22.883,-6.516 21.656,-5.867 19.969,-5.453C18.289,-5.047 16.082,-4.844 13.344,-4.844L8.922,-4.844L8.922,0ZM8.922,-9L12.953,-9C14.078,-9 14.961,-9.047 15.609,-9.141C16.254,-9.234 16.734,-9.359 17.047,-9.516C17.359,-9.68 17.555,-9.875 17.641,-10.094C17.723,-10.32 17.766,-10.566 17.766,-10.828C17.766,-11.086 17.723,-11.328 17.641,-11.547C17.555,-11.773 17.359,-11.969 17.047,-12.125C16.734,-12.289 16.254,-12.414 15.609,-12.5C14.961,-12.594 14.078,-12.641 12.953,-12.641L8.922,-12.641L8.922,-9Z" style="fill-rule:nonzero;"/>
                            </g>
                        </g>
                        <g transform="matrix(1,0,0,1,871.749,267.083)">
                            <g>
                                <path d="M28.219,0L21.078,0L19.5,-2.75L8.906,-2.75L7.313,0L0.172,0L10.922,-16.797L17.469,-16.797L28.219,0ZM17.125,-6.906L14.203,-12L11.281,-6.906L17.125,-6.906Z" style="fill-rule:nonzero;"/>
                            </g>
                        </g>
                        <g transform="matrix(1,0,0,1,904.937,267.083)">
                            <g>
                                <rect x="1.875" y="-16.813" width="7.047" height="16.813" style="fill-rule:nonzero;"/>
                            </g>
                        </g>
                        <g transform="matrix(1,0,0,1,920.529,267.083)">
                            <g>
                                <path d="M24.813,0L18.156,0C17.852,-0.414 17.641,-0.953 17.516,-1.609C17.398,-2.117 17.234,-2.617 17.016,-3.109C16.797,-3.598 16.414,-4.004 15.875,-4.328C15.344,-4.648 14.551,-4.82 13.5,-4.844L8.922,-4.844L8.922,0L1.875,0L1.875,-16.813L13.344,-16.813C16.082,-16.813 18.289,-16.602 19.969,-16.188C21.656,-15.781 22.883,-15.133 23.656,-14.25C24.426,-13.375 24.813,-12.234 24.813,-10.828C24.813,-9.641 24.547,-8.645 24.016,-7.844C23.484,-7.039 22.641,-6.406 21.484,-5.938C22.598,-5.477 23.316,-4.926 23.641,-4.281C23.973,-3.633 24.18,-2.926 24.266,-2.156C24.336,-1.469 24.52,-0.75 24.813,0ZM8.922,-9L12.953,-9C14.078,-9 14.961,-9.051 15.609,-9.156C16.254,-9.258 16.734,-9.398 17.047,-9.578C17.359,-9.754 17.555,-9.945 17.641,-10.156C17.723,-10.375 17.766,-10.598 17.766,-10.828C17.766,-11.047 17.723,-11.266 17.641,-11.484C17.555,-11.703 17.359,-11.898 17.047,-12.078C16.734,-12.254 16.254,-12.391 15.609,-12.484C14.961,-12.586 14.078,-12.641 12.953,-12.641L8.922,-12.641L8.922,-9Z" style="fill-rule:nonzero;"/>
                            </g>
                        </g>
                    </g>
                </g>
            </g>
            <g transform="matrix(6.09957,0,0,6.09957,-341.867,-67.5973)">
                <g>
                    <g>
                        <g>
                            <g transform="matrix(1,0,0,1,427.117,313.412)">
                                <g>
                                    <path d="M6.188,0L1.297,0L1.297,-11.656L14.703,-11.656L14.703,-8.781L6.188,-8.781L6.188,-6.953L13.375,-6.953L13.375,-4.703L6.188,-4.703L6.188,0Z" style="fill-rule:nonzero;"/>
                                </g>
                            </g>
                            <g transform="matrix(1,0,0,1,443.074,313.412)">
                                <g>
                                    <path d="M8.813,0.25C5.938,0.25 3.816,-0.344 2.453,-1.531C1.254,-2.582 0.656,-4.016 0.656,-5.828C0.656,-7.641 1.254,-9.066 2.453,-10.109C3.816,-11.297 5.938,-11.891 8.813,-11.891C11.695,-11.891 13.816,-11.297 15.172,-10.109C16.379,-9.066 16.984,-7.641 16.984,-5.828C16.984,-4.016 16.379,-2.582 15.172,-1.531C13.816,-0.344 11.695,0.25 8.813,0.25ZM8.813,-2.875C10,-2.875 10.867,-3.211 11.422,-3.891C11.859,-4.441 12.078,-5.086 12.078,-5.828C12.078,-6.566 11.859,-7.207 11.422,-7.75C10.867,-8.438 10,-8.781 8.813,-8.781C7.633,-8.781 6.766,-8.438 6.203,-7.75C5.766,-7.207 5.547,-6.566 5.547,-5.828C5.547,-5.086 5.766,-4.441 6.203,-3.891C6.766,-3.211 7.633,-2.875 8.813,-2.875Z" style="fill-rule:nonzero;"/>
                                </g>
                            </g>
                            <g transform="matrix(1,0,0,1,461.313,313.412)">
                                <g>
                                    <path d="M17.219,0L12.594,0C12.383,-0.289 12.234,-0.664 12.141,-1.125C12.066,-1.477 11.953,-1.82 11.797,-2.156C11.648,-2.5 11.391,-2.781 11.016,-3C10.648,-3.227 10.102,-3.348 9.375,-3.359L6.188,-3.359L6.188,0L1.297,0L1.297,-11.656L9.25,-11.656C11.156,-11.656 12.691,-11.516 13.859,-11.234C15.023,-10.953 15.875,-10.504 16.406,-9.891C16.945,-9.285 17.219,-8.488 17.219,-7.5C17.219,-6.688 17.031,-6 16.656,-5.438C16.289,-4.883 15.707,-4.445 14.906,-4.125C15.676,-3.801 16.176,-3.414 16.406,-2.969C16.633,-2.52 16.773,-2.031 16.828,-1.5C16.891,-1.02 17.02,-0.52 17.219,0ZM6.188,-6.234L8.984,-6.25C9.766,-6.25 10.379,-6.281 10.828,-6.344C11.273,-6.414 11.602,-6.516 11.813,-6.641C12.031,-6.766 12.172,-6.898 12.234,-7.047C12.297,-7.191 12.328,-7.344 12.328,-7.5C12.328,-7.664 12.297,-7.82 12.234,-7.969C12.172,-8.125 12.031,-8.258 11.813,-8.375C11.602,-8.5 11.273,-8.598 10.828,-8.672C10.379,-8.742 9.766,-8.781 8.984,-8.781L6.188,-8.781L6.188,-6.234Z" style="fill-rule:nonzero;"/>
                                </g>
                            </g>
                        </g>
                        <g transform="matrix(1,0,0,1,-7.41677,0)">
                            <g transform="matrix(1,0,0,1,494.021,313.412)">
                                <g>
                                    <path d="M19.641,0L15.563,0L12.688,-7.578L9.813,0L5.734,0L0.125,-11.656L5.078,-11.656L8,-4.25L11.141,-11.656L14.234,-11.656L17.359,-4.25L20.281,-11.656L25.25,-11.656L19.641,0Z" style="fill-rule:nonzero;"/>
                                </g>
                            </g>
                            <g transform="matrix(1,0,0,1,519.992,313.412)">
                                <g>
                                    <path d="M8.813,0.25C5.938,0.25 3.816,-0.344 2.453,-1.531C1.254,-2.582 0.656,-4.016 0.656,-5.828C0.656,-7.641 1.254,-9.066 2.453,-10.109C3.816,-11.297 5.938,-11.891 8.813,-11.891C11.695,-11.891 13.816,-11.297 15.172,-10.109C16.379,-9.066 16.984,-7.641 16.984,-5.828C16.984,-4.016 16.379,-2.582 15.172,-1.531C13.816,-0.344 11.695,0.25 8.813,0.25ZM8.813,-2.875C10,-2.875 10.867,-3.211 11.422,-3.891C11.859,-4.441 12.078,-5.086 12.078,-5.828C12.078,-6.566 11.859,-7.207 11.422,-7.75C10.867,-8.438 10,-8.781 8.813,-8.781C7.633,-8.781 6.766,-8.438 6.203,-7.75C5.766,-7.207 5.547,-6.566 5.547,-5.828C5.547,-5.086 5.766,-4.441 6.203,-3.891C6.766,-3.211 7.633,-2.875 8.813,-2.875Z" style="fill-rule:nonzero;"/>
                                </g>
                            </g>
                            <g transform="matrix(1,0,0,1,538.231,313.412)">
                                <g>
                                    <path d="M17.219,0L12.594,0C12.383,-0.289 12.234,-0.664 12.141,-1.125C12.066,-1.477 11.953,-1.82 11.797,-2.156C11.648,-2.5 11.391,-2.781 11.016,-3C10.648,-3.227 10.102,-3.348 9.375,-3.359L6.188,-3.359L6.188,0L1.297,0L1.297,-11.656L9.25,-11.656C11.156,-11.656 12.691,-11.516 13.859,-11.234C15.023,-10.953 15.875,-10.504 16.406,-9.891C16.945,-9.285 17.219,-8.488 17.219,-7.5C17.219,-6.688 17.031,-6 16.656,-5.438C16.289,-4.883 15.707,-4.445 14.906,-4.125C15.676,-3.801 16.176,-3.414 16.406,-2.969C16.633,-2.52 16.773,-2.031 16.828,-1.5C16.891,-1.02 17.02,-0.52 17.219,0ZM6.188,-6.234L8.984,-6.25C9.766,-6.25 10.379,-6.281 10.828,-6.344C11.273,-6.414 11.602,-6.516 11.813,-6.641C12.031,-6.766 12.172,-6.898 12.234,-7.047C12.297,-7.191 12.328,-7.344 12.328,-7.5C12.328,-7.664 12.297,-7.82 12.234,-7.969C12.172,-8.125 12.031,-8.258 11.813,-8.375C11.602,-8.5 11.273,-8.598 10.828,-8.672C10.379,-8.742 9.766,-8.781 8.984,-8.781L6.188,-8.781L6.188,-6.234Z" style="fill-rule:nonzero;"/>
                                </g>
                            </g>
                            <g transform="matrix(1,0,0,1,556.706,313.412)">
                                <g>
                                    <path d="M20.438,0L14.094,0L9.078,-3.906L6.188,-1.922L6.188,0L1.297,0L1.297,-11.656L6.188,-11.656L6.188,-6.266L14.047,-11.656L20.438,-11.656L12.094,-5.953L20.438,0Z" style="fill-rule:nonzero;"/>
                                </g>
                            </g>
                        </g>
                    </g>
                    <g>
                        <g>
                            <g transform="matrix(1,0,0,1,596.862,313.412)">
                                <g>
                                    <path d="M6.188,0L1.297,0L1.297,-11.656L14.703,-11.656L14.703,-8.781L6.188,-8.781L6.188,-6.953L13.375,-6.953L13.375,-4.703L6.188,-4.703L6.188,0Z" style="fill-rule:nonzero;"/>
                                </g>
                            </g>
                            <g transform="matrix(1,0,0,1,612.819,313.412)">
                                <g>
                                    <path d="M8.813,0.25C5.938,0.25 3.816,-0.344 2.453,-1.531C1.254,-2.582 0.656,-4.016 0.656,-5.828C0.656,-7.641 1.254,-9.066 2.453,-10.109C3.816,-11.297 5.938,-11.891 8.813,-11.891C11.695,-11.891 13.816,-11.297 15.172,-10.109C16.379,-9.066 16.984,-7.641 16.984,-5.828C16.984,-4.016 16.379,-2.582 15.172,-1.531C13.816,-0.344 11.695,0.25 8.813,0.25ZM8.813,-2.875C10,-2.875 10.867,-3.211 11.422,-3.891C11.859,-4.441 12.078,-5.086 12.078,-5.828C12.078,-6.566 11.859,-7.207 11.422,-7.75C10.867,-8.438 10,-8.781 8.813,-8.781C7.633,-8.781 6.766,-8.438 6.203,-7.75C5.766,-7.207 5.547,-6.566 5.547,-5.828C5.547,-5.086 5.766,-4.441 6.203,-3.891C6.766,-3.211 7.633,-2.875 8.813,-2.875Z" style="fill-rule:nonzero;"/>
                                </g>
                            </g>
                            <g transform="matrix(1,0,0,1,631.058,313.412)">
                                <g>
                                    <path d="M17.219,0L12.594,0C12.383,-0.289 12.234,-0.664 12.141,-1.125C12.066,-1.477 11.953,-1.82 11.797,-2.156C11.648,-2.5 11.391,-2.781 11.016,-3C10.648,-3.227 10.102,-3.348 9.375,-3.359L6.188,-3.359L6.188,0L1.297,0L1.297,-11.656L9.25,-11.656C11.156,-11.656 12.691,-11.516 13.859,-11.234C15.023,-10.953 15.875,-10.504 16.406,-9.891C16.945,-9.285 17.219,-8.488 17.219,-7.5C17.219,-6.688 17.031,-6 16.656,-5.438C16.289,-4.883 15.707,-4.445 14.906,-4.125C15.676,-3.801 16.176,-3.414 16.406,-2.969C16.633,-2.52 16.773,-2.031 16.828,-1.5C16.891,-1.02 17.02,-0.52 17.219,0ZM6.188,-6.234L8.984,-6.25C9.766,-6.25 10.379,-6.281 10.828,-6.344C11.273,-6.414 11.602,-6.516 11.813,-6.641C12.031,-6.766 12.172,-6.898 12.234,-7.047C12.297,-7.191 12.328,-7.344 12.328,-7.5C12.328,-7.664 12.297,-7.82 12.234,-7.969C12.172,-8.125 12.031,-8.258 11.813,-8.375C11.602,-8.5 11.273,-8.598 10.828,-8.672C10.379,-8.742 9.766,-8.781 8.984,-8.781L6.188,-8.781L6.188,-6.234Z" style="fill-rule:nonzero;"/>
                                </g>
                            </g>
                        </g>
                        <g transform="matrix(1,0,0,1,-8.66127,0)">
                            <g transform="matrix(1,0,0,1,663.767,313.412)">
                                <g>
                                    <path d="M6.188,0L1.297,0L1.297,-11.656L9.25,-11.656C11.156,-11.656 12.691,-11.516 13.859,-11.234C15.023,-10.953 15.875,-10.504 16.406,-9.891C16.945,-9.285 17.219,-8.488 17.219,-7.5C17.219,-6.531 16.945,-5.738 16.406,-5.125C15.875,-4.52 15.023,-4.07 13.859,-3.781C12.691,-3.5 11.156,-3.359 9.25,-3.359L6.188,-3.359L6.188,0ZM6.188,-6.234L8.984,-6.25C9.766,-6.25 10.379,-6.281 10.828,-6.344C11.273,-6.406 11.602,-6.492 11.813,-6.609C12.031,-6.723 12.172,-6.852 12.234,-7C12.297,-7.156 12.328,-7.32 12.328,-7.5C12.328,-7.688 12.297,-7.859 12.234,-8.016C12.172,-8.172 12.031,-8.305 11.813,-8.422C11.602,-8.535 11.273,-8.625 10.828,-8.688C10.379,-8.75 9.766,-8.781 8.984,-8.781L6.188,-8.781L6.188,-6.234Z" style="fill-rule:nonzero;"/>
                                </g>
                            </g>
                            <g transform="matrix(1,0,0,1,682.241,313.412)">
                                <g>
                                    <path d="M14.906,0L1.297,0L1.297,-11.656L6.188,-11.656L6.188,-2.891L14.906,-2.891L14.906,0Z" style="fill-rule:nonzero;"/>
                                </g>
                            </g>
                            <g transform="matrix(1,0,0,1,698.085,313.412)">
                                <g>
                                    <path d="M19.578,0L14.625,0L13.531,-1.906L6.172,-1.906L5.078,0L0.125,0L7.578,-11.656L12.125,-11.656L19.578,0ZM11.875,-4.797L9.859,-8.328L7.828,-4.797L11.875,-4.797Z" style="fill-rule:nonzero;"/>
                                </g>
                            </g>
                            <g transform="matrix(1,0,0,1,718.395,313.412)">
                                <g>
                                    <path d="M11.375,0L6.484,0L6.484,-5.531L0.125,-11.656L5.547,-11.656L8.938,-8.172L12.313,-11.656L17.734,-11.656L11.375,-5.531L11.375,0Z" style="fill-rule:nonzero;"/>
                                </g>
                            </g>
                        </g>
                    </g>
                    <g>
                        <g>
                            <g transform="matrix(1,0,0,1,755.831,313.412)">
                                <g>
                                    <path d="M6.188,0L1.297,0L1.297,-11.656L14.703,-11.656L14.703,-8.781L6.188,-8.781L6.188,-6.953L13.375,-6.953L13.375,-4.703L6.188,-4.703L6.188,0Z" style="fill-rule:nonzero;"/>
                                </g>
                            </g>
                            <g transform="matrix(1,0,0,1,771.788,313.412)">
                                <g>
                                    <path d="M8.813,0.25C5.938,0.25 3.816,-0.344 2.453,-1.531C1.254,-2.582 0.656,-4.016 0.656,-5.828C0.656,-7.641 1.254,-9.066 2.453,-10.109C3.816,-11.297 5.938,-11.891 8.813,-11.891C11.695,-11.891 13.816,-11.297 15.172,-10.109C16.379,-9.066 16.984,-7.641 16.984,-5.828C16.984,-4.016 16.379,-2.582 15.172,-1.531C13.816,-0.344 11.695,0.25 8.813,0.25ZM8.813,-2.875C10,-2.875 10.867,-3.211 11.422,-3.891C11.859,-4.441 12.078,-5.086 12.078,-5.828C12.078,-6.566 11.859,-7.207 11.422,-7.75C10.867,-8.438 10,-8.781 8.813,-8.781C7.633,-8.781 6.766,-8.438 6.203,-7.75C5.766,-7.207 5.547,-6.566 5.547,-5.828C5.547,-5.086 5.766,-4.441 6.203,-3.891C6.766,-3.211 7.633,-2.875 8.813,-2.875Z" style="fill-rule:nonzero;"/>
                                </g>
                            </g>
                            <g transform="matrix(1,0,0,1,790.027,313.412)">
                                <g>
                                    <path d="M17.219,0L12.594,0C12.383,-0.289 12.234,-0.664 12.141,-1.125C12.066,-1.477 11.953,-1.82 11.797,-2.156C11.648,-2.5 11.391,-2.781 11.016,-3C10.648,-3.227 10.102,-3.348 9.375,-3.359L6.188,-3.359L6.188,0L1.297,0L1.297,-11.656L9.25,-11.656C11.156,-11.656 12.691,-11.516 13.859,-11.234C15.023,-10.953 15.875,-10.504 16.406,-9.891C16.945,-9.285 17.219,-8.488 17.219,-7.5C17.219,-6.688 17.031,-6 16.656,-5.438C16.289,-4.883 15.707,-4.445 14.906,-4.125C15.676,-3.801 16.176,-3.414 16.406,-2.969C16.633,-2.52 16.773,-2.031 16.828,-1.5C16.891,-1.02 17.02,-0.52 17.219,0ZM6.188,-6.234L8.984,-6.25C9.766,-6.25 10.379,-6.281 10.828,-6.344C11.273,-6.414 11.602,-6.516 11.813,-6.641C12.031,-6.766 12.172,-6.898 12.234,-7.047C12.297,-7.191 12.328,-7.344 12.328,-7.5C12.328,-7.664 12.297,-7.82 12.234,-7.969C12.172,-8.125 12.031,-8.258 11.813,-8.375C11.602,-8.5 11.273,-8.598 10.828,-8.672C10.379,-8.742 9.766,-8.781 8.984,-8.781L6.188,-8.781L6.188,-6.234Z" style="fill-rule:nonzero;"/>
                                </g>
                            </g>
                        </g>
                        <g transform="matrix(1,0,0,1,-8.67699,0)">
                            <g transform="matrix(1,0,0,1,822.736,313.412)">
                                <g>
                                    <path d="M6.188,0L1.297,0L1.297,-11.656L14.703,-11.656L14.703,-8.781L6.188,-8.781L6.188,-6.953L13.375,-6.953L13.375,-4.703L6.188,-4.703L6.188,0Z" style="fill-rule:nonzero;"/>
                                </g>
                            </g>
                            <g transform="matrix(1,0,0,1,838.693,313.412)">
                                <g>
                                    <path d="M19.578,0L14.625,0L13.531,-1.906L6.172,-1.906L5.078,0L0.125,0L7.578,-11.656L12.125,-11.656L19.578,0ZM11.875,-4.797L9.859,-8.328L7.828,-4.797L11.875,-4.797Z" style="fill-rule:nonzero;"/>
                                </g>
                            </g>
                            <g transform="matrix(1,0,0,1,859.003,313.412)">
                                <g>
                                    <path d="M23.469,0L18.578,0L18.578,-7.438L14.203,0L10.563,0L6.188,-7.438L6.188,0L1.297,0L1.297,-11.656L7.109,-11.656L12.391,-3.328L17.641,-11.656L23.469,-11.656L23.469,0Z" style="fill-rule:nonzero;"/>
                                </g>
                            </g>
                            <g transform="matrix(1,0,0,1,884.373,313.412)">
                                <g>
                                    <rect x="1.297" y="-11.656" width="4.891" height="11.656" style="fill-rule:nonzero;"/>
                                </g>
                            </g>
                            <g transform="matrix(1,0,0,1,892.476,313.412)">
                                <g>
                                    <path d="M14.906,0L1.297,0L1.297,-11.656L6.188,-11.656L6.188,-2.891L14.906,-2.891L14.906,0Z" style="fill-rule:nonzero;"/>
                                </g>
                            </g>
                            <g transform="matrix(1,0,0,1,908.319,313.412)">
                                <g>
                                    <path d="M11.375,0L6.484,0L6.484,-5.531L0.125,-11.656L5.547,-11.656L8.938,-8.172L12.313,-11.656L17.734,-11.656L11.375,-5.531L11.375,0Z" style="fill-rule:nonzero;"/>
                                </g>
                            </g>
                        </g>
                    </g>
                </g>
            </g>
        </g>
        <g transform="matrix(1.06023,0,0,1.06023,-242.248,-64.8159)">
            <path d="M1640.59,1833.66L5351.83,1833.21" style="fill:none;stroke:black;stroke-width:17.68px;"/>
        </g>
    </g>
</svg>
